<svg xmlns="http://www.w3.org/2000/svg" viewBox="0 0 375 375" version="1.1"><defs><clipPath id="0132c6c05c"><path d="M 62.730469 0 L 273.480469 0 L 273.480469 368.25 L 62.730469 368.25 Z M 62.730469 0 " clip-rule="nonzero"/></clipPath></defs><g clip-path="url(#0132c6c05c)"><path fill="#bc1515" d="M 167.953125 0.0390625 C 109.921875 0.0390625 62.730469 47.230469 62.730469 105.261719 C 62.730469 157.292969 100.734375 200.507812 150.417969 208.90625 L 150.417969 350.78125 C 150.417969 360.480469 158.253906 368.320312 167.953125 368.320312 C 177.652344 368.320312 185.492188 360.480469 185.492188 350.78125 L 185.492188 208.90625 C 235.171875 200.523438 273.175781 157.3125 273.175781 105.261719 C 273.175781 47.230469 225.984375 0.0390625 167.953125 0.0390625 Z M 132.878906 87.726562 C 123.199219 87.726562 115.34375 79.867188 115.34375 70.1875 C 115.34375 60.507812 123.199219 52.652344 132.878906 52.652344 C 142.558594 52.652344 150.417969 60.507812 150.417969 70.1875 C 150.417969 79.867188 142.558594 87.726562 132.878906 87.726562 Z M 132.878906 87.726562 " fill-opacity="1" fill-rule="nonzero"/></g></svg>
